<svg width="45" height="39" viewBox="0 0 45 39" fill="none" xmlns="http://www.w3.org/2000/svg">
<path d="M42.1875 16.7163L8.83125 16.7163L19.0406 4.57165C19.277 4.28999 19.4551 3.96498 19.5646 3.61517C19.6742 3.26536 19.7131 2.8976 19.6791 2.5329C19.6106 1.79635 19.2494 1.11694 18.675 0.644144C18.1006 0.171343 17.3602 -0.0561232 16.6165 0.0117861C15.8728 0.0796954 15.1868 0.437419 14.7094 1.00625L0.646875 17.719C0.552263 17.852 0.467661 17.9916 0.393751 18.1369C0.393751 18.2761 0.253126 18.3597 0.196875 18.499C0.0693952 18.8184 0.00264948 19.1583 2.11011e-06 19.5017C0.00264954 19.8452 0.0693953 20.1851 0.196875 20.5045C0.196875 20.6438 0.3375 20.7273 0.393751 20.8666C0.467661 21.0119 0.552264 21.1515 0.646876 21.2844L14.7094 37.9972C14.9738 38.3117 15.305 38.5645 15.6793 38.7378C16.0536 38.9112 16.4618 39.0007 16.875 39C17.5321 39.0013 18.169 38.7746 18.675 38.3593C18.9598 38.1255 19.1952 37.8383 19.3678 37.5142C19.5403 37.1902 19.6466 36.8355 19.6806 36.4707C19.7145 36.1059 19.6755 35.738 19.5657 35.3881C19.4559 35.0383 19.2774 34.7133 19.0406 34.4318L8.83125 22.2872L42.1875 22.2872C42.9334 22.2872 43.6488 21.9937 44.1762 21.4714C44.7037 20.949 45 20.2405 45 19.5017C45 18.763 44.7037 18.0545 44.1762 17.5321C43.6488 17.0097 42.9334 16.7163 42.1875 16.7163Z" fill="#D2C0F0"/>
</svg>
