<svg width="373" height="29" viewBox="0 0 373 29" fill="none" xmlns="http://www.w3.org/2000/svg">
<path d="M0 14L169 14" stroke="#D2C0F0"/>
<path d="M204 14L373 14" stroke="#D2C0F0"/>
<path d="M182.723 21.1758C185.245 21.1758 186.95 19.3477 186.95 16.4297V16.4121C186.95 13.4941 185.236 11.6836 182.714 11.6836C180.191 11.6836 178.486 13.5029 178.486 16.4121V16.4297C178.486 19.3389 180.183 21.1758 182.723 21.1758ZM182.731 19.8223C181.114 19.8223 180.051 18.583 180.051 16.4297V16.4121C180.051 14.2764 181.123 13.0371 182.714 13.0371C184.331 13.0371 185.386 14.2676 185.386 16.4121V16.4297C185.386 18.5742 184.34 19.8223 182.731 19.8223ZM188.497 21H190.026V15.3574C190.026 13.9688 190.8 13.1426 191.986 13.1426C192.355 13.1426 192.681 13.1865 192.804 13.2305V11.7451C192.681 11.7275 192.452 11.6836 192.188 11.6836C191.16 11.6836 190.369 12.3516 190.062 13.4062H190.026V11.8594H188.497V21Z" fill="#D2C0F0"/>
</svg>
