<svg width="34" height="40" viewBox="0 0 34 40" fill="none" xmlns="http://www.w3.org/2000/svg">
<path d="M16.9286 0C21.4183 0 25.7242 1.78354 28.8989 4.95826C32.0736 8.13299 33.8571 12.4388 33.8571 16.9286C33.8571 23.937 28.5152 31.2802 18.0571 39.1238C17.7316 39.368 17.3356 39.5 16.9286 39.5C16.5216 39.5 16.1256 39.368 15.8 39.1238C5.3419 31.2802 0 23.937 0 16.9286C0 12.4388 1.78354 8.13299 4.95826 4.95826C8.13299 1.78354 12.4388 0 16.9286 0ZM16.9286 11.2857C15.432 11.2857 13.9967 11.8802 12.9385 12.9385C11.8802 13.9967 11.2857 15.432 11.2857 16.9286C11.2857 18.4251 11.8802 19.8604 12.9385 20.9187C13.9967 21.9769 15.432 22.5714 16.9286 22.5714C18.4251 22.5714 19.8604 21.9769 20.9187 20.9187C21.9769 19.8604 22.5714 18.4251 22.5714 16.9286C22.5714 15.432 21.9769 13.9967 20.9187 12.9385C19.8604 11.8802 18.4251 11.2857 16.9286 11.2857Z" fill="#D2C0F0"/>
</svg>
