<svg width="31" height="35" viewBox="0 0 31 35" fill="none" xmlns="http://www.w3.org/2000/svg">
<path d="M15.5 17.5C20.3922 17.5 24.3571 13.583 24.3571 8.75C24.3571 3.91699 20.3922 0 15.5 0C10.6078 0 6.64286 3.91699 6.64286 8.75C6.64286 13.583 10.6078 17.5 15.5 17.5ZM21.7 19.6875H20.5444C19.0083 20.3848 17.2991 20.7812 15.5 20.7812C13.7009 20.7812 11.9987 20.3848 10.4556 19.6875H9.3C4.16562 19.6875 0 23.8027 0 28.875V31.7188C0 33.5303 1.48772 35 3.32143 35H27.6786C29.5123 35 31 33.5303 31 31.7188V28.875C31 23.8027 26.8344 19.6875 21.7 19.6875Z" fill="#D2C0F0"/>
</svg>
