<svg width="35" height="39" viewBox="0 0 35 39" fill="none" xmlns="http://www.w3.org/2000/svg">
<path d="M17.5 19.5C23.0234 19.5 27.5 15.1354 27.5 9.75C27.5 4.36465 23.0234 0 17.5 0C11.9766 0 7.5 4.36465 7.5 9.75C7.5 15.1354 11.9766 19.5 17.5 19.5ZM24.5 21.9375H23.1953C21.4609 22.7145 19.5312 23.1562 17.5 23.1562C15.4688 23.1562 13.5469 22.7145 11.8047 21.9375H10.5C4.70312 21.9375 0 26.523 0 32.175V35.3438C0 37.3623 1.67969 39 3.75 39H31.25C33.3203 39 35 37.3623 35 35.3438V32.175C35 26.523 30.2969 21.9375 24.5 21.9375Z" fill="#E5E5E5"/>
</svg>
