<svg width="32" height="41" viewBox="0 0 32 41" fill="none" xmlns="http://www.w3.org/2000/svg">
<path d="M0 20.5C0 21.0437 0.210714 21.5651 0.585787 21.9496C0.96086 22.334 1.46957 22.55 2 22.55H17.18L12.58 27.2445C12.3925 27.4351 12.2438 27.6618 12.1422 27.9116C12.0407 28.1614 11.9884 28.4294 11.9884 28.7C11.9884 28.9706 12.0407 29.2386 12.1422 29.4884C12.2438 29.7382 12.3925 29.9649 12.58 30.1555C12.7659 30.3476 12.9871 30.5002 13.2308 30.6042C13.4746 30.7083 13.736 30.7619 14 30.7619C14.264 30.7619 14.5254 30.7083 14.7692 30.6042C15.0129 30.5002 15.2341 30.3476 15.42 30.1555L23.42 21.9555C23.6021 21.7605 23.7448 21.5306 23.84 21.279C24.04 20.7799 24.04 20.2201 23.84 19.721C23.7448 19.4694 23.6021 19.2395 23.42 19.0445L15.42 10.8445C15.2335 10.6534 15.0121 10.5017 14.7685 10.3983C14.5249 10.2949 14.2637 10.2416 14 10.2416C13.7363 10.2416 13.4751 10.2949 13.2315 10.3983C12.9879 10.5017 12.7665 10.6534 12.58 10.8445C12.3935 11.0356 12.2456 11.2626 12.1447 11.5123C12.0438 11.762 11.9918 12.0297 11.9918 12.3C11.9918 12.5703 12.0438 12.838 12.1447 13.0877C12.2456 13.3374 12.3935 13.5644 12.58 13.7555L17.18 18.45H2C1.46957 18.45 0.96086 18.666 0.585787 19.0504C0.210714 19.4349 0 19.9563 0 20.5ZM26 0H6C4.4087 0 2.88258 0.647945 1.75736 1.80129C0.632141 2.95464 0 4.51892 0 6.15V12.3C0 12.8437 0.210714 13.3651 0.585787 13.7496C0.96086 14.134 1.46957 14.35 2 14.35C2.53043 14.35 3.03914 14.134 3.41421 13.7496C3.78929 13.3651 4 12.8437 4 12.3V6.15C4 5.60631 4.21071 5.08488 4.58579 4.70043C4.96086 4.31598 5.46957 4.1 6 4.1H26C26.5304 4.1 27.0391 4.31598 27.4142 4.70043C27.7893 5.08488 28 5.60631 28 6.15V34.85C28 35.3937 27.7893 35.9151 27.4142 36.2996C27.0391 36.684 26.5304 36.9 26 36.9H6C5.46957 36.9 4.96086 36.684 4.58579 36.2996C4.21071 35.9151 4 35.3937 4 34.85V28.7C4 28.1563 3.78929 27.6349 3.41421 27.2504C3.03914 26.866 2.53043 26.65 2 26.65C1.46957 26.65 0.96086 26.866 0.585787 27.2504C0.210714 27.6349 0 28.1563 0 28.7V34.85C0 36.4811 0.632141 38.0454 1.75736 39.1987C2.88258 40.3521 4.4087 41 6 41H26C27.5913 41 29.1174 40.3521 30.2426 39.1987C31.3679 38.0454 32 36.4811 32 34.85V6.15C32 4.51892 31.3679 2.95464 30.2426 1.80129C29.1174 0.647945 27.5913 0 26 0Z" fill="#D2C0F0"/>
</svg>
