<svg width="99" height="101" viewBox="0 0 99 101" fill="none" xmlns="http://www.w3.org/2000/svg">
<g filter="url(#filter0_d_101_5)">
<circle cx="47.5" cy="45.5" r="45.5" fill="#D2C0F0"/>
<path d="M47.8527 24.6899C48.5543 24.6899 49.2272 24.9686 49.7233 25.4647C50.2194 25.9608 50.4981 26.6337 50.4981 27.3353V43.2074H66.3702C67.0718 43.2074 67.7446 43.4861 68.2407 43.9822C68.7368 44.4783 69.0155 45.1511 69.0155 45.8527C69.0155 46.5543 68.7368 47.2272 68.2407 47.7233C67.7446 48.2194 67.0718 48.4981 66.3702 48.4981H50.4981V64.3702C50.4981 65.0718 50.2194 65.7446 49.7233 66.2407C49.2272 66.7368 48.5543 67.0155 47.8527 67.0155C47.1511 67.0155 46.4783 66.7368 45.9822 66.2407C45.4861 65.7446 45.2074 65.0718 45.2074 64.3702V48.4981H29.3353C28.6337 48.4981 27.9608 48.2194 27.4647 47.7233C26.9686 47.2272 26.6899 46.5543 26.6899 45.8527C26.6899 45.1511 26.9686 44.4783 27.4647 43.9822C27.9608 43.4861 28.6337 43.2074 29.3353 43.2074H45.2074V27.3353C45.2074 26.6337 45.4861 25.9608 45.9822 25.4647C46.4783 24.9686 47.1511 24.6899 47.8527 24.6899Z" fill="#886DBC"/>
</g>
<defs>
<filter id="filter0_d_101_5" x="0" y="0" width="99" height="101" filterUnits="userSpaceOnUse" color-interpolation-filters="sRGB">
<feFlood flood-opacity="0" result="BackgroundImageFix"/>
<feColorMatrix in="SourceAlpha" type="matrix" values="0 0 0 0 0 0 0 0 0 0 0 0 0 0 0 0 0 0 127 0" result="hardAlpha"/>
<feOffset dx="2" dy="6"/>
<feGaussianBlur stdDeviation="2"/>
<feComposite in2="hardAlpha" operator="out"/>
<feColorMatrix type="matrix" values="0 0 0 0 0 0 0 0 0 0 0 0 0 0 0 0 0 0 0.25 0"/>
<feBlend mode="normal" in2="BackgroundImageFix" result="effect1_dropShadow_101_5"/>
<feBlend mode="normal" in="SourceGraphic" in2="effect1_dropShadow_101_5" result="shape"/>
</filter>
</defs>
</svg>
